<svg width="1730" height="1730" viewBox="0 0 1730 1730" fill="none" xmlns="http://www.w3.org/2000/svg">
<rect width="1730" height="1730" fill="white"/>
<path d="M124.114 418.334L114.35 437.735L105.5 457.5L91 494.5L81.5 530.5L75 566V594.5V617L77.5 643.5L82.5 672.5L87.6323 689.499L91.5861 702.151L98.5274 722.008L105.732 737.56L119.615 762.777L129.104 778.768L141.141 796.78L151.685 811.717L160.911 822.085L179.186 843.085L190.521 856.089L204.315 868.653L223.47 886.753L240.164 900.284L253.431 910.74L283.393 932.179L305.798 946.413L331.63 961.964L362.383 978.746L381.273 987.796L443.042 1015.21L485.744 1030.85L524.667 1042.8L559.149 1052.68L596.55 1061.61L637.183 1070.08L672.275 1076.23L698.595 1079.77L743.691 1085.47L780.938 1088.7L815.722 1089.93L850.815 1090.85H889.447L922.692 1089.62L956.399 1087.62L999.341 1084.08L1025.2 1081L1057.52 1076.85L1083.07 1072.39L1134.48 1061.61L1167.57 1054.07L1208.35 1042.22L1230.83 1034.98L1253.91 1027.29L1277.92 1018.36L1306.24 1006.97L1325.79 998.969L1343.18 990.657L1369.66 978.498L1391.05 966.339L1412.29 954.026L1444.3 933.864L1461.7 921.243L1480.32 908.16L1508.64 885.535L1529.88 865.064L1557.28 837.206L1575.28 814.735L1599.91 780.874L1613.61 757.017L1623.3 737.47L1633.16 715.923L1642.39 691.143L1650.86 657.897L1654.09 635.426L1656.86 609.261L1656.7 577.555L1653.16 548.157L1648.39 524.147L1641.16 498.289L1633.46 476.742L1624.84 456.271L1615.98 437.88L1605.8 418.339" stroke="#FF0000" stroke-width="14"/>
<path d="M1612.2 1300.92L1595.64 1324.67L1580.68 1345.11L1562.56 1366.72L1546.61 1384.17L1530.65 1400.95L1511.71 1417.91L1495.25 1432.53L1473.81 1448.49L1454.86 1462.95L1437.58 1473.92L1415.47 1488.54L1397.69 1498.52L1375.75 1510.98L1359.13 1519.13L1338.35 1529.43L1305.78 1543.56L1272.04 1556.85L1242.45 1567.49L1213.2 1576.63L1182.45 1585.77L1154.36 1593.09L1128.44 1598.9L1095.53 1605.39L1067.6 1610.37L1033.7 1614.86L1007.27 1618.35L980.014 1621.51L934.64 1624.17L896.247 1625.5L837.742 1626L802.673 1625L758.795 1622.67L715.083 1618.18L667.216 1611.7L614.695 1602.06L563.503 1590.93L504.833 1573.31L454.307 1556.02L406.107 1535.75L364.722 1515.47L316.689 1489.04L277.963 1464.94L251.204 1444.5L215.636 1414.58L187.687 1389L159.791 1357.91L136.426 1328.01L118.85 1302.61" stroke="#0000FF" stroke-width="10"/>
</svg>
